<?xml version="1.0" encoding="UTF-8"?>
<svg width="23px" height="22px" viewBox="0 0 23 22" version="1.1" xmlns="http://www.w3.org/2000/svg" xmlns:xlink="http://www.w3.org/1999/xlink">
    <!-- Generator: Sketch 52.2 (67145) - http://www.bohemiancoding.com/sketch -->
    <title>EOS</title>
    <desc>Created with Sketch.</desc>
    <g id="Page-1" stroke="none" stroke-width="1" fill="none" fill-rule="evenodd">
        <g id="我的账户-copy" transform="translate(-40.000000, -121.000000)">
            <g id="EOS" transform="translate(40.371342, 121.000000)">
                <path d="M22,11 C22,17.0752083 17.0752083,22 11,22 C4.92525,22 0,17.0752083 0,11 C0,4.92479167 4.92525,0 11,0 C17.0752083,0 22,4.92479167 22,11" id="路径" fill="#FFC600"></path>
                <path d="M10.9898466,19.4999195 L10.9974797,19.4999195 C11.0548516,19.4999755 11.1111153,19.4839992 11.1600184,19.453766 L16.3769734,16.1655545 C16.4232206,16.1347855 16.4542018,16.0872745 16.4847339,16.0415735 C16.4847339,16.0275464 16.4878769,16.0130669 16.493714,16.0003973 C16.4971262,15.9939345 16.499261,15.9868657 16.5,15.979583 L16.5,15.839765 L14.8068132,8.05475336 C14.7928941,8.01131476 14.7771791,7.96199385 14.7452999,7.93077236 L11.2520638,3.1222098 C11.1932478,3.04515417 11.1022529,3 11.0057862,3 C10.9093195,3 10.8183246,3.04515417 10.7595086,3.1222098 L7.26627248,7.93077236 L7.26088445,7.93620219 C7.24741439,7.95022923 7.23484234,7.96335131 7.23484234,7.97692587 C7.2310268,7.98511386 7.22683148,7.9931166 7.22227027,8.00090759 C7.21122103,8.01671726 7.2049802,8.0354278 7.20431019,8.05475336 L5.51157239,15.839765 L5.51157239,15.855602 C5.49614254,15.8954663 5.49614254,15.9397186 5.51157239,15.979583 C5.51157239,15.9958725 5.51157239,16.026189 5.52773646,16.0415735 C5.55018657,16.0931568 5.58700474,16.1365954 5.63459897,16.166007 L10.8205729,19.453766 C10.8714093,19.4852579 10.9301889,19.5012845 10.9898466,19.4999195 Z M10.4357781,18.47685 L6.86576264,16.2121605 L9.72859982,16.2121605 L10.4357781,18.47685 Z M11.5439152,18.47685 L12.2524404,16.2121605 L15.1143796,16.2121605 L11.5439152,18.47685 Z M10.9898466,18.1668975 L10.3747138,16.2121605 L11.6058775,16.2121605 L10.9898466,18.1668975 Z M15.6536311,15.591803 L12.4526954,15.591803 L13.6066307,11.9474854 L15.6540801,15.591803 L15.6536311,15.591803 Z M11.8056834,15.591803 L10.1749079,15.591803 L8.79018549,11.2026944 L10.9902956,7.29457785 L13.1913038,11.2026944 L11.8056834,15.591803 Z M9.52834489,15.591803 L6.32696016,15.591803 L8.37440959,11.9474854 L9.52834489,15.591803 Z M15.4533762,13.9637604 L13.8531328,11.1416089 L13.8531328,11.1407039 L14.4372845,9.29546838 L15.4533762,13.9637604 Z M6.52721506,13.9637604 L7.54285774,9.31130537 L8.11264137,11.1407039 L6.52766408,13.9642129 L6.52721506,13.9637604 Z M8.52751928,10.3963654 L7.8360561,8.16289738 L10.6822802,4.23894382 L10.6822802,6.59639286 L8.52707028,10.3968179 L8.52751928,10.3963654 Z M13.452623,10.3963654 L11.297413,6.59639286 L11.297413,4.23894382 L14.1606992,8.16289738 L13.452174,10.3963654 L13.452623,10.3963654 Z" id="形状" fill="#FFFFFF" fill-rule="nonzero"></path>
            </g>
        </g>
    </g>
</svg>