<?xml version="1.0" encoding="UTF-8"?>
<svg width="204px" height="26px" viewBox="0 0 204 26" version="1.1" xmlns="http://www.w3.org/2000/svg" xmlns:xlink="http://www.w3.org/1999/xlink">
    <!-- Generator: Sketch 55.1 (78136) - https://sketchapp.com -->
    <title>SmartSignature</title>
    <desc>Created with Sketch.</desc>
    <g id="页面-1" stroke="none" stroke-width="1" fill="none" fill-rule="evenodd">
        <g id="长图" transform="translate(-88.000000, -65.000000)" fill="#FFFFFF" fill-rule="nonzero">
            <path d="M88.027,83.812 L89.485,80.545 C90.727,81.274 92.455,81.868 94.372,81.868 C95.857,81.868 97.342,81.247 97.342,79.816 C97.342,78.844 96.505,78.196 94.669,77.386 C92.563,76.468 90.376,75.037 90.376,72.418 C90.376,68.665 93.859,66.478 97.936,66.478 C100.42,66.478 101.878,67.018 102.769,67.477 L101.446,70.825 C100.825,70.501 99.313,69.88 97.585,69.934 C95.641,69.934 94.696,70.825 94.696,71.689 C94.696,72.823 96.073,73.471 97.639,74.2 C100.096,75.28 101.716,76.738 101.716,79.141 C101.716,83.299 98.071,85.324 93.832,85.324 C91.078,85.27 89.053,84.568 88.027,83.812 Z M107.359,85 L103.444,85 L105.064,76.09 C105.388,74.389 105.604,72.958 105.766,71.797 L109.249,71.797 L108.979,74.065 L109.006,74.065 C110.329,72.229 112.084,71.473 113.839,71.473 C116.215,71.473 117.187,72.958 117.268,74.146 C118.564,72.256 120.346,71.5 122.128,71.473 C124.315,71.473 125.638,72.85 125.638,75.253 C125.638,75.793 125.53,76.846 125.449,77.386 L124.045,85 L120.13,85 L121.399,78.007 C121.48,77.548 121.561,77.008 121.561,76.522 C121.561,75.469 121.129,74.74 120.076,74.74 C118.591,74.74 117.214,76.684 116.728,79.384 L115.675,85 L111.76,85 L113.083,77.953 C113.164,77.44 113.245,76.981 113.245,76.549 C113.245,75.55 112.921,74.74 111.841,74.74 C110.302,74.74 108.844,76.792 108.358,79.411 L107.359,85 Z M140.596,85 L136.816,85 C136.843,84.217 136.924,83.245 137.005,82.246 L136.951,82.246 C135.682,84.595 133.846,85.324 132.145,85.324 C129.634,85.324 127.771,83.407 127.771,80.518 C127.771,75.928 131.038,71.473 137.842,71.473 C139.489,71.473 141.298,71.797 142.486,72.175 L141.109,78.925 C140.785,80.68 140.542,83.272 140.596,85 Z M137.383,77.305 L137.923,74.686 C137.599,74.632 137.194,74.578 136.735,74.578 C134.116,74.578 132.064,77.197 132.064,79.816 C132.064,81.166 132.712,82.084 133.873,82.084 C135.115,82.084 136.735,80.815 137.383,77.305 Z M147.616,85 L143.566,85 L144.997,77.521 C145.375,75.361 145.537,72.904 145.672,71.797 L149.182,71.797 C149.101,72.742 149.02,73.714 148.939,74.659 L149.02,74.659 C149.938,72.877 151.477,71.473 153.529,71.473 C153.772,71.473 154.069,71.473 154.312,71.5 L153.502,75.415 C153.313,75.388 153.124,75.388 152.881,75.388 C150.073,75.388 148.993,77.764 148.48,80.491 L147.616,85 Z M157.768,69.286 L161.899,68.179 L161.251,71.797 L164.167,71.797 L163.546,74.956 L160.63,74.956 L159.82,78.871 C159.712,79.411 159.577,80.194 159.577,80.734 C159.577,81.328 159.82,81.841 160.738,81.841 C161.116,81.841 161.521,81.841 161.845,81.787 L161.386,85 C160.927,85.189 159.901,85.324 159.01,85.324 C156.553,85.324 155.419,84.109 155.419,82.489 C155.419,81.733 155.5,81.031 155.716,79.897 L156.688,74.956 L154.96,74.956 L155.554,71.797 L157.282,71.797 L157.768,69.286 Z M169.135,83.812 L170.593,80.545 C171.835,81.274 173.563,81.868 175.48,81.868 C176.965,81.868 178.45,81.247 178.45,79.816 C178.45,78.844 177.613,78.196 175.777,77.386 C173.671,76.468 171.484,75.037 171.484,72.418 C171.484,68.665 174.967,66.478 179.044,66.478 C181.528,66.478 182.986,67.018 183.877,67.477 L182.554,70.825 C181.933,70.501 180.421,69.88 178.693,69.934 C176.749,69.934 175.804,70.825 175.804,71.689 C175.804,72.823 177.181,73.471 178.747,74.2 C181.204,75.28 182.824,76.738 182.824,79.141 C182.824,83.299 179.179,85.324 174.94,85.324 C172.186,85.27 170.161,84.568 169.135,83.812 Z M188.629,85 L184.552,85 L187.063,71.797 L191.14,71.797 L188.629,85 Z M189.601,70.15 L189.574,70.15 C188.521,70.15 187.603,69.421 187.603,68.206 C187.603,66.775 188.764,65.965 189.952,65.965 C191.113,65.965 192.031,66.694 192.031,67.936 C192.031,69.313 190.924,70.15 189.601,70.15 Z M192.166,89.806 L193.057,86.701 C193.867,87.187 195.703,87.484 196.972,87.484 C198.916,87.484 200.536,86.755 201.13,83.839 L201.346,82.894 L201.292,82.894 C200.212,84.19 198.97,84.865 197.242,84.865 C194.353,84.865 192.517,82.597 192.517,79.843 C192.517,75.442 195.838,71.473 201.886,71.473 C203.884,71.473 205.639,71.824 207.178,72.445 L205.207,83.164 C204.748,85.648 203.992,87.943 202.264,89.266 C200.725,90.427 198.673,90.724 196.945,90.724 C194.92,90.724 193.192,90.373 192.166,89.806 Z M202.183,77.872 L202.75,74.848 C202.426,74.713 201.751,74.578 201.13,74.578 C198.646,74.578 196.864,76.792 196.864,79.384 C196.864,80.815 197.62,81.76 198.916,81.76 C200.239,81.76 201.697,80.464 202.183,77.872 Z M212.443,85 L208.393,85 L210.067,76.09 C210.391,74.389 210.607,72.958 210.796,71.797 L214.414,71.797 L214.117,74.146 L214.171,74.146 C215.521,72.283 217.276,71.473 219.139,71.473 C221.407,71.473 222.811,72.796 222.811,75.334 C222.811,75.874 222.703,76.9 222.595,77.44 L221.164,85 L217.114,85 L218.437,78.007 C218.518,77.548 218.572,76.981 218.572,76.495 C218.572,75.469 218.221,74.74 217.087,74.74 C215.656,74.74 214.036,76.468 213.469,79.519 L212.443,85 Z M237.796,85 L234.016,85 C234.043,84.217 234.124,83.245 234.205,82.246 L234.151,82.246 C232.882,84.595 231.046,85.324 229.345,85.324 C226.834,85.324 224.971,83.407 224.971,80.518 C224.971,75.928 228.238,71.473 235.042,71.473 C236.689,71.473 238.498,71.797 239.686,72.175 L238.309,78.925 C237.985,80.68 237.742,83.272 237.796,85 Z M234.583,77.305 L235.123,74.686 C234.799,74.632 234.394,74.578 233.935,74.578 C231.316,74.578 229.264,77.197 229.264,79.816 C229.264,81.166 229.912,82.084 231.073,82.084 C232.315,82.084 233.935,80.815 234.583,77.305 Z M244.303,69.286 L248.434,68.179 L247.786,71.797 L250.702,71.797 L250.081,74.956 L247.165,74.956 L246.355,78.871 C246.247,79.411 246.112,80.194 246.112,80.734 C246.112,81.328 246.355,81.841 247.273,81.841 C247.651,81.841 248.056,81.841 248.38,81.787 L247.921,85 C247.462,85.189 246.436,85.324 245.545,85.324 C243.088,85.324 241.954,84.109 241.954,82.489 C241.954,81.733 242.035,81.031 242.251,79.897 L243.223,74.956 L241.495,74.956 L242.089,71.797 L243.817,71.797 L244.303,69.286 Z M261.88,71.797 L265.93,71.797 L264.256,80.707 C263.905,82.408 263.689,83.839 263.527,85 L259.909,85 L260.206,82.732 L260.152,82.732 C258.667,84.541 256.939,85.324 255.238,85.324 C252.997,85.324 251.539,84.163 251.539,81.436 C251.539,80.734 251.62,79.978 251.782,79.087 L253.186,71.797 L257.236,71.797 L255.94,78.736 C255.832,79.276 255.751,79.897 255.751,80.356 C255.751,81.274 256.129,82.03 257.263,82.03 C258.721,82.03 260.26,80.302 260.8,77.413 L261.88,71.797 Z M271.006,85 L266.956,85 L268.387,77.521 C268.765,75.361 268.927,72.904 269.062,71.797 L272.572,71.797 C272.491,72.742 272.41,73.714 272.329,74.659 L272.41,74.659 C273.328,72.877 274.867,71.473 276.919,71.473 C277.162,71.473 277.459,71.473 277.702,71.5 L276.892,75.415 C276.703,75.388 276.514,75.388 276.271,75.388 C273.463,75.388 272.383,77.764 271.87,80.491 L271.006,85 Z M289.123,81.301 L289.42,84.19 C287.773,85.054 285.586,85.324 284.101,85.324 C280.159,85.324 277.999,83.191 277.999,79.519 C277.999,75.469 281.185,71.473 286.126,71.473 C288.907,71.473 291.094,72.877 291.094,75.55 C291.094,78.817 287.692,80.005 281.86,79.843 C281.887,80.221 282.049,80.788 282.319,81.166 C282.913,81.868 283.885,82.192 285.1,82.192 C286.612,82.192 288.016,81.841 289.123,81.301 Z M287.233,75.442 L287.233,75.415 C287.233,74.821 286.612,74.362 285.64,74.362 C283.588,74.362 282.481,75.928 282.265,76.9 C285.694,76.927 287.233,76.603 287.233,75.442 Z" id="SmartSignature"></path>
        </g>
    </g>
</svg>