<?xml version="1.0" encoding="UTF-8"?>
<svg width="512px" height="256px" viewBox="0 0 512 256" version="1.1" xmlns="http://www.w3.org/2000/svg" xmlns:xlink="http://www.w3.org/1999/xlink">
    <!-- Generator: Sketch 55.1 (78136) - https://sketchapp.com -->
    <title>logo矩形</title>
    <desc>Created with Sketch.</desc>
    <g id="logo矩形" stroke="none" stroke-width="1" fill="none" fill-rule="evenodd">
        <rect fill="#1C9CFE" x="0" y="0" width="512" height="256"></rect>
        <g id="编组" transform="translate(175.000000, 47.000000)" fill="#FFFFFF">
            <path d="M72.1273435,58.0980466 L72.1273435,63.912048 L1.00044417e-11,101.451087 L1.02782973e-11,95.6370854 L72.1273435,58.0980466 Z" id="形状结合备份" transform="translate(36.063672, 79.774567) scale(1, -1) translate(-36.063672, -79.774567) "></path>
            <path d="M21.9152396,63.5516655 L16.4183303,60.5985582 L72.1273435,31.604522 L72.1273435,37.4185234 L21.9152396,63.5516655 Z M5.68434189e-14,74.9575623 L5.68434189e-14,69.1435608 L-2.03286277e-11,74.9575623 Z" id="形状结合"></path>
            <path d="M14.6287079,120.331027 L8.7534654,117.574825 L72.1273435,84.5915712 L72.1273435,90.4055726 L14.6287079,120.331027 Z M2.47553089e-11,127.944611 L2.49512733e-11,122.13061 L5.68434189e-14,127.944611 Z" id="形状结合备份-2" transform="translate(36.063672, 106.268091) scale(-1, -1) translate(-36.063672, -106.268091) "></path>
            <path d="M103.871014,67.3439776 L97.9957717,64.5877757 L161.36965,31.604522 L161.36965,37.4185234 L103.871014,67.3439776 Z M89.2423063,74.9575623 L89.2423063,69.1435608 L89.2423063,74.9575623 Z" id="形状结合备份-3"></path>
            <polygon id="矩形备份-2" points="-4.00387187e-15 37.0836243 72.1273435 0.29399294 72.1273435 27.3466723 8.00774374e-15 64.1193022"></polygon>
            <path d="M0,51.8727244 L7.85463722,56.2465157 L0,52.1938476 L0,51.8727244 Z M47.759054,49.9322294 L72.1273435,62.3558963 L72.1273435,89.4085757 L20.1198734,62.5748707 L47.759054,49.9322294 Z" id="形状结合"></path>
            <polygon id="矩形备份-3" points="3.55271368e-14 132.602861 72.1273435 95.8132296 72.1273435 124.75696 4.35348805e-14 161.529589"></polygon>
            <polygon id="矩形备份-3" points="89.5097276 132.602861 161.637071 95.8132296 161.637071 124.75696 89.5097276 161.529589"></polygon>
            <path d="M161.36965,58.0980466 L161.36965,63.912048 L89.2423063,101.451087 L89.2423063,95.6370854 L161.36965,58.0980466 Z" id="形状结合备份" transform="translate(125.305978, 79.774567) scale(1, -1) translate(-125.305978, -79.774567) "></path>
            <path d="M111.123489,116.55644 L105.66033,113.585767 L161.36965,84.5915712 L161.36965,90.4055726 L111.123489,116.55644 Z M89.2423063,127.944611 L89.2423063,122.13061 L89.2423063,127.944611 Z" id="形状结合" transform="translate(125.305978, 106.268091) rotate(-180.000000) translate(-125.305978, -106.268091) "></path>
            <polygon id="矩形备份-2" points="89.2423063 37.0836243 161.36965 0.29399294 161.36965 27.3466723 89.2423063 64.1193022"></polygon>
            <path d="M89.2423063,96.7511389 L89.2423063,70.1405578 L89.2423063,96.7511389 Z M135.522667,93.7356397 L161.36965,106.913188 L161.36965,133.965867 L110.736679,107.841347 L135.522667,93.7356397 Z" id="形状结合" transform="translate(125.305978, 102.053212) rotate(-180.000000) translate(-125.305978, -102.053212) "></path>
        </g>
    </g>
</svg>