<?xml version="1.0" encoding="UTF-8"?>
<svg width="12px" height="14px" viewBox="0 0 12 14" version="1.1" xmlns="http://www.w3.org/2000/svg" xmlns:xlink="http://www.w3.org/1999/xlink">
    <!-- Generator: Sketch 52.2 (67145) - http://www.bohemiancoding.com/sketch -->
    <title>返回</title>
    <desc>Created with Sketch.</desc>
    <g id="Page-1" stroke="none" stroke-width="1" fill="none" fill-rule="evenodd" opacity="0.553176153">
        <g id="文章页" transform="translate(-24.000000, -57.000000)" fill="#252525">
            <g id="返回" transform="translate(24.000000, 57.000000)">
                <path d="M11.4849516,6.36268792 L1.69693798,6.36268792 L6.78251767,1.03542035 C6.8578906,0.956204477 6.89976447,0.850583305 6.89976446,0.73836082 C6.89976444,0.626138336 6.8578906,0.520517163 6.78251767,0.443501732 L6.61292855,0.265266016 C6.53546192,0.183849696 6.43287098,0.142041317 6.33028003,0.142041317 C6.22768908,0.142041317 6.12509814,0.183849696 6.04763151,0.265266016 L0.116199944,6.47711085 C-0.0387333148,6.63994348 -0.0387333148,6.90619684 0.116199944,7.07122991 L6.04553782,13.2830747 C6.20256478,13.4459074 6.4559016,13.4459074 6.61083486,13.2830747 L6.78042397,13.104839 C6.8557969,13.0256232 6.89767077,12.920002 6.89767077,12.8099799 C6.89767077,12.6977575 6.85579692,12.5921363 6.78042397,12.5129204 L1.94190002,7.43870355 L11.4870453,7.43870355 C11.7696938,7.43870355 12,7.19665504 12,6.89959552 C12,6.60253599 11.7676001,6.36268792 11.4849516,6.36268792 Z" id="路径"></path>
            </g>
        </g>
    </g>
</svg>